<svg width="14" height="17" viewBox="0 0 14 17" fill="none" xmlns="http://www.w3.org/2000/svg">
<path fill-rule="evenodd" clip-rule="evenodd" d="M6.85946 0.926121L6.59687 0.761246L6.33246 0.923177C2.42299 3.31738 0.179542 7.08131 0.0587759 10.3246C-0.00194042 11.9552 0.476635 13.4766 1.58538 14.5902C2.69413 15.7038 4.37251 16.349 6.5935 16.349C9.024 16.349 10.806 15.7118 11.9487 14.595C13.0974 13.4724 13.5266 11.9369 13.393 10.3025C13.1283 7.06315 10.6595 3.31209 6.85946 0.926121ZM4.27952 15.0356C3.44023 14.7787 2.78501 14.3778 2.29403 13.8847C1.41942 13.0062 1.00547 11.7748 1.05808 10.3618C1.16142 7.58671 3.07468 4.20034 6.59044 1.94174C10.0423 4.20858 12.1693 7.60592 12.3963 10.3839C12.5115 11.7931 12.1392 13.0105 11.2497 13.8799C10.8037 14.3158 10.2095 14.6819 9.44526 14.9396C10.0431 14.2174 10.2698 13.2501 10.2699 12.3489C10.2701 11.1937 9.69238 9.84316 9.06531 8.6734C8.57529 7.7593 8.01822 6.89171 7.60373 6.24616L7.60372 6.24615C7.48085 6.05479 7.37051 5.88293 7.27815 5.73517L6.35415 4.25677V6.00016C6.35415 6.21906 6.25699 7.61949 5.97382 8.59877C5.90401 8.84023 5.82895 9.03387 5.75311 9.17023C5.72419 9.22223 5.69973 9.25767 5.68109 9.28135C5.5972 9.21257 5.46336 9.05851 5.28826 8.7521L4.78926 7.87883L4.3943 8.80382C3.95336 9.83652 3.50449 11.3344 3.51556 12.6867C3.52111 13.3651 3.64258 14.0472 3.97697 14.6185C4.06441 14.7679 4.16512 14.9074 4.27952 15.0356ZM6.93447 8.87655C7.05883 8.44649 7.15022 7.95421 7.21536 7.49781C7.52963 7.99788 7.86934 8.55897 8.18396 9.14586C8.8065 10.3072 9.27004 11.4643 9.26994 12.3487C9.26984 13.199 9.02776 13.9778 8.52955 14.4591C8.05665 14.916 7.25126 15.2007 5.89028 14.8635C5.36807 14.7341 5.04534 14.4642 4.84 14.1134C4.62515 13.7463 4.52025 13.2566 4.51552 12.6785C4.50849 11.8188 4.7233 10.8531 5.003 10.0171C5.03526 10.0456 5.06791 10.0722 5.10098 10.0968C5.3674 10.295 5.70065 10.3854 6.03628 10.2435C6.32224 10.1227 6.50715 9.87187 6.62705 9.65627C6.75434 9.4274 6.85429 9.15385 6.93447 8.87655Z" fill="#0070F0"/>
</svg>
