<svg width="16" height="16" viewBox="0 0 16 16" fill="none" xmlns="http://www.w3.org/2000/svg">
<path d="M12.2667 5.38C12.3604 5.28624 12.4131 5.15909 12.4131 5.0265C12.4131 4.89392 12.3604 4.76677 12.2667 4.673L10.9937 3.4C10.9475 3.35225 10.8924 3.31416 10.8314 3.28795C10.7704 3.26175 10.7048 3.24795 10.6384 3.24738C10.572 3.2468 10.5061 3.25945 10.4447 3.28459C10.3832 3.30973 10.3274 3.34686 10.2805 3.39381C10.2335 3.44075 10.1964 3.49658 10.1713 3.55803C10.1461 3.61947 10.1335 3.68531 10.134 3.7517C10.1346 3.81809 10.1484 3.8837 10.1746 3.94471C10.2008 4.00571 10.2389 4.06088 10.2867 4.107L11.5597 5.38C11.6534 5.47374 11.7806 5.5264 11.9132 5.5264C12.0458 5.5264 12.1729 5.47374 12.2667 5.38V5.38ZM5.47667 11.461C5.52443 11.5071 5.56252 11.5623 5.58872 11.6233C5.61493 11.6843 5.62872 11.7499 5.6293 11.8163C5.62987 11.8827 5.61722 11.9485 5.59208 12.01C5.56694 12.0714 5.52982 12.1273 5.48287 12.1742C5.43592 12.2211 5.3801 12.2583 5.31865 12.2834C5.2572 12.3086 5.19136 12.3212 5.12497 12.3206C5.05858 12.3201 4.99297 12.3063 4.93197 12.2801C4.87097 12.2538 4.8158 12.2158 4.76967 12.168L3.49767 10.896C3.40379 10.8022 3.35099 10.675 3.35089 10.5424C3.3508 10.4097 3.40342 10.2824 3.49717 10.1885C3.59093 10.0946 3.71814 10.0418 3.85082 10.0417C3.9835 10.0416 4.11079 10.0942 4.20467 10.188L5.47667 11.461ZM14.8367 0.847003C14.5618 0.572147 14.1889 0.41774 13.8002 0.41774C13.4114 0.41774 13.0386 0.572147 12.7637 0.847003L12.1437 1.467L11.8987 1.223C11.7055 1.02965 11.4717 0.881574 11.2144 0.789438C10.957 0.697302 10.6825 0.663404 10.4104 0.690186C10.1384 0.716968 9.8757 0.803764 9.64126 0.944318C9.40682 1.08487 9.20648 1.27568 9.05467 1.503C8.57488 1.39884 8.07427 1.45283 7.62772 1.65688C7.18117 1.86094 6.81269 2.2041 6.57742 2.63502C6.34214 3.06595 6.25272 3.56146 6.32253 4.04744C6.39233 4.53342 6.61762 4.98373 6.96467 5.331L7.62267 5.988L5.65367 7.957L4.99567 7.299C4.6484 6.95195 4.19809 6.72667 3.71211 6.65686C3.22613 6.58705 2.73062 6.67647 2.29969 6.91175C1.86877 7.14702 1.52561 7.5155 1.32155 7.96205C1.1175 8.4086 1.06351 8.90921 1.16767 9.389C0.940797 9.54116 0.750412 9.74164 0.610178 9.97608C0.469944 10.2105 0.383337 10.4731 0.356572 10.7449C0.329807 11.0168 0.363547 11.2912 0.45537 11.5485C0.547194 11.8058 0.694826 12.0395 0.887672 12.233L1.13267 12.478L0.495672 13.115C0.220643 13.3899 0.0660804 13.7628 0.0659867 14.1516C0.0658929 14.5405 0.220276 14.9135 0.495173 15.1885C0.770069 15.4635 1.14296 15.6181 1.53182 15.6182C1.92068 15.6183 2.29364 15.4639 2.56867 15.189L3.20667 14.551L3.45067 14.795C3.64389 14.9884 3.8776 15.1364 4.13495 15.2286C4.3923 15.3207 4.66688 15.3546 4.93891 15.3278C5.21094 15.301 5.47365 15.2142 5.70809 15.0737C5.94253 14.9331 6.14287 14.7423 6.29467 14.515C6.77446 14.6192 7.27508 14.5652 7.72163 14.3611C8.16818 14.1571 8.53665 13.8139 8.77193 13.383C9.0072 12.9521 9.09662 12.4565 9.02682 11.9706C8.95701 11.4846 8.73173 11.0343 8.38467 10.687L7.72667 10.03L9.69567 8.062L10.3537 8.719C10.701 9.06559 11.1512 9.29047 11.637 9.36002C12.1227 9.42957 12.6179 9.34006 13.0486 9.10486C13.4793 8.86967 13.8222 8.50143 14.0263 8.05516C14.2303 7.6089 14.2845 7.10859 14.1807 6.629C14.4075 6.47685 14.5979 6.27636 14.7382 6.04193C14.8784 5.8075 14.965 5.54493 14.9918 5.27307C15.0185 5.00122 14.9848 4.7268 14.893 4.46952C14.8012 4.21225 14.6535 3.97848 14.4607 3.785L14.2157 3.541L14.8357 2.921C14.9719 2.78486 15.08 2.6232 15.1537 2.44527C15.2275 2.26733 15.2654 2.07661 15.2654 1.884C15.2654 1.69139 15.2275 1.50067 15.1537 1.32274C15.08 1.14481 14.9719 0.983148 14.8357 0.847003H14.8367ZM13.5087 2.834L12.8497 2.174L13.4697 1.554C13.5572 1.46648 13.6759 1.41731 13.7997 1.41731C13.9234 1.41731 14.0422 1.46648 14.1297 1.554C14.2172 1.64152 14.2664 1.76023 14.2664 1.884C14.2664 2.00778 14.2172 2.12648 14.1297 2.214L13.5097 2.834H13.5087ZM8.98867 7.354L7.01967 9.323L6.36067 8.664L8.32967 6.696L8.98867 7.354V7.354ZM2.49867 13.844L1.86167 14.481C1.77428 14.5685 1.65571 14.6177 1.53203 14.6178C1.40835 14.6179 1.28969 14.5689 1.20217 14.4815C1.11465 14.3941 1.06543 14.2755 1.06534 14.1519C1.06524 14.0282 1.11428 13.9095 1.20167 13.822L1.84067 13.185L2.49867 13.844V13.844ZM9.99267 1.93C10.0714 1.85115 10.165 1.78859 10.2679 1.74591C10.3709 1.70322 10.4812 1.68126 10.5927 1.68126C10.7041 1.68126 10.8145 1.70322 10.9174 1.74591C11.0204 1.78859 11.1139 1.85115 11.1927 1.93L13.7547 4.492C13.8575 4.59447 13.9323 4.72163 13.9719 4.86129C14.0115 5.00095 14.0146 5.14845 13.9809 5.28965C13.9472 5.43085 13.8778 5.56103 13.7793 5.66772C13.6809 5.77442 13.5567 5.85405 13.4187 5.899C13.3517 5.92082 13.2901 5.95653 13.2379 6.00381C13.1857 6.05108 13.1441 6.10885 13.1158 6.17334C13.0874 6.23782 13.0731 6.30756 13.0736 6.37798C13.0741 6.44841 13.0894 6.51793 13.1187 6.582C13.2425 6.85333 13.2672 7.15953 13.1884 7.44718C13.1095 7.73484 12.9322 7.98567 12.6873 8.15592C12.4424 8.32617 12.1455 8.40503 11.8484 8.37872C11.5513 8.35242 11.2729 8.22263 11.0617 8.012L7.67167 4.623C7.46104 4.41183 7.33126 4.13339 7.30495 3.83629C7.27865 3.53919 7.3575 3.24229 7.52775 2.99739C7.698 2.75249 7.94884 2.57515 8.23649 2.49631C8.52414 2.41747 8.83035 2.44213 9.10167 2.566C9.16579 2.59541 9.23541 2.61092 9.30595 2.61151C9.37649 2.6121 9.44636 2.59776 9.51096 2.56943C9.57557 2.54109 9.63344 2.49941 9.68079 2.44711C9.72813 2.39482 9.76388 2.3331 9.78567 2.266C9.82708 2.13919 9.89803 2.02402 9.99267 1.93V1.93ZM2.48967 8.006C2.72839 7.76736 3.05212 7.6333 3.38967 7.6333C3.72722 7.6333 4.05095 7.76736 4.28967 8.006L7.67867 11.395C7.8893 11.6062 8.01909 11.8846 8.04539 12.1817C8.0717 12.4788 7.99284 12.7757 7.82259 13.0206C7.65234 13.2655 7.40151 13.4429 7.11385 13.5217C6.8262 13.6005 6.52 13.5759 6.24867 13.452C6.18455 13.4226 6.11493 13.4071 6.04439 13.4065C5.97385 13.4059 5.90399 13.4202 5.83938 13.4486C5.77478 13.4769 5.7169 13.5186 5.66956 13.5709C5.62221 13.6232 5.58647 13.6849 5.56467 13.752C5.51964 13.8898 5.44001 14.0138 5.3334 14.1121C5.22678 14.2104 5.09674 14.2797 4.9557 14.3134C4.81465 14.3472 4.66733 14.3441 4.52779 14.3047C4.38825 14.2652 4.26116 14.1906 4.15867 14.088L1.59667 11.526C1.49408 11.4235 1.41949 11.2964 1.38002 11.1569C1.34055 11.0174 1.33752 10.87 1.37123 10.729C1.40493 10.5879 1.47424 10.4579 1.57254 10.3513C1.67083 10.2447 1.79483 10.165 1.93267 10.12C1.99976 10.0982 2.06149 10.0625 2.11378 10.0151C2.16608 9.96777 2.20776 9.9099 2.23609 9.84529C2.26443 9.78069 2.27877 9.71082 2.27818 9.64028C2.27759 9.56974 2.26208 9.50012 2.23267 9.436C2.12453 9.19989 2.09119 8.93634 2.13713 8.68074C2.18307 8.42513 2.30608 8.18969 2.48967 8.006V8.006Z" fill="#0070F0"/>
</svg>
