<svg width="15" height="16" viewBox="0 0 15 16" fill="none" xmlns="http://www.w3.org/2000/svg">
<path d="M7.83334 5.33333C7.83334 5.05719 7.60948 4.83333 7.33334 4.83333C7.05719 4.83333 6.83334 5.05719 6.83334 5.33333L7.83334 5.33333ZM9.33334 9.16666C9.60948 9.16666 9.83334 8.9428 9.83334 8.66666C9.83334 8.39052 9.60948 8.16666 9.33334 8.16666V9.16666ZM1.02099 1.77623C0.805358 1.94873 0.770397 2.26338 0.942902 2.47901C1.11541 2.69464 1.43005 2.7296 1.64568 2.5571L1.02099 1.77623ZM3.31235 1.22376C3.52798 1.05126 3.56294 0.736612 3.39044 0.520981C3.21793 0.30535 2.90329 0.270389 2.68766 0.442894L3.31235 1.22376ZM13.021 2.5571C13.2366 2.7296 13.5513 2.69464 13.7238 2.47901C13.8963 2.26338 13.8613 1.94873 13.6457 1.77623L13.021 2.5571ZM11.979 0.442894C11.7634 0.270389 11.4487 0.30535 11.2762 0.520981C11.1037 0.736612 11.1387 1.05126 11.3543 1.22376L11.979 0.442894ZM8.33334 9.16666C8.60948 9.16666 8.83334 8.9428 8.83334 8.66666C8.83334 8.39052 8.60948 8.16666 8.33334 8.16666V9.16666ZM7.33334 7.66666H6.83334H7.33334ZM6.83334 5.33333V7.66666H7.83334L7.83334 5.33333L6.83334 5.33333ZM13.5 7.99999C13.5 11.4058 10.7391 14.1667 7.33334 14.1667V15.1667C11.2914 15.1667 14.5 11.958 14.5 7.99999H13.5ZM7.33334 14.1667C3.92758 14.1667 1.16667 11.4058 1.16667 7.99999H0.16667C0.16667 11.958 3.3753 15.1667 7.33334 15.1667V14.1667ZM1.16667 7.99999C1.16667 4.59424 3.92758 1.83333 7.33334 1.83333V0.833328C3.3753 0.833328 0.16667 4.04195 0.16667 7.99999H1.16667ZM7.33334 1.83333C10.7391 1.83333 13.5 4.59424 13.5 7.99999H14.5C14.5 4.04195 11.2914 0.833328 7.33334 0.833328V1.83333ZM1.64568 2.5571L3.31235 1.22376L2.68766 0.442894L1.02099 1.77623L1.64568 2.5571ZM13.6457 1.77623L11.979 0.442894L11.3543 1.22376L13.021 2.5571L13.6457 1.77623ZM8.33334 9.16666H9.33334V8.16666H8.33334V9.16666ZM6.83334 7.66666C6.83334 8.49509 7.50491 9.16666 8.33334 9.16666V8.16666C8.05719 8.16666 7.83334 7.9428 7.83334 7.66666H6.83334Z" fill="#0070F0"/>
</svg>
